<?xml version="1.0" standalone="no"?>
<!DOCTYPE svg PUBLIC "-//W3C//DTD SVG 20010904//EN"
 "http://www.w3.org/TR/2001/REC-SVG-20010904/DTD/svg10.dtd">
<svg version="1.0" xmlns="http://www.w3.org/2000/svg"
 width="512.000000pt" height="512.000000pt" viewBox="0 0 512.000000 512.000000"
 preserveAspectRatio="xMidYMid meet">

<g transform="translate(0.000000,512.000000) scale(0.100000,-0.100000)"
fill="#000000" stroke="none">
<path d="M3044 3558 c-73 -75 -197 -222 -459 -548 -82 -102 -181 -221 -220
-265 -39 -44 -131 -154 -204 -245 -74 -91 -143 -173 -153 -183 -14 -12 -17
-21 -11 -30 5 -6 65 -81 133 -166 68 -84 131 -169 141 -187 l17 -34 46 36 c59
45 59 34 0 -20 -45 -40 -47 -45 -60 -126 -7 -46 -12 -85 -11 -86 1 -1 43 52
92 119 132 177 296 387 402 514 51 62 93 114 93 117 0 5 -253 -5 -259 -10 -2
-2 8 -13 22 -25 37 -28 34 -37 -15 -43 -110 -13 -248 -17 -248 -6 0 6 22 35
48 63 26 29 97 111 158 182 60 72 206 241 324 376 219 250 400 463 339 399
-52 -55 -572 -648 -621 -708 -47 -59 -38 -57 -159 -38 -34 5 -71 25 -67 36 4
10 449 579 625 798 67 83 121 152 120 152 -1 0 -34 -33 -73 -72z m-475 -1280
c45 -17 79 -33 77 -35 -2 -2 -37 9 -77 25 -41 17 -83 32 -94 35 -15 3 -16 5
-3 6 9 0 53 -13 97 -31z m-120 18 c-8 -8 -133 -56 -136 -52 -2 2 24 15 59 29
58 24 87 33 77 23z m-257 -56 c34 -16 56 -30 48 -30 -15 1 -131 59 -118 60 3
0 35 -13 70 -30z m98 -10 c-8 -5 -19 -10 -25 -10 -5 0 -3 5 5 10 8 5 20 10 25
10 6 0 3 -5 -5 -10z"/>
<path d="M2938 3513 c-220 -209 -273 -258 -540 -497 -98 -87 -178 -161 -178
-164 0 -3 12 5 28 19 15 14 65 59 112 100 251 220 711 649 696 649 -3 0 -57
-48 -118 -107z"/>
<path d="M3454 3587 c-70 -90 -957 -1110 -987 -1136 -27 -21 -20 -31 21 -30
33 1 34 2 9 8 l-27 6 25 27 c28 30 57 35 256 42 l126 4 98 101 c138 142 159
153 312 159 68 3 123 1 123 -3 0 -4 -37 -57 -82 -119 -45 -61 -99 -135 -120
-164 l-39 -52 -31 16 c-29 15 -33 15 -109 -20 -43 -20 -82 -36 -87 -36 -4 0
-6 15 -4 34 9 80 -1 71 -178 -145 -238 -290 -457 -574 -412 -535 22 19 22 19
47 -4 13 -12 45 -64 71 -116 26 -51 51 -91 56 -88 17 11 394 522 693 940 39
54 102 142 142 195 39 53 69 100 66 103 -4 3 -93 6 -199 6 l-193 0 -102 -117
c-113 -131 -146 -165 -134 -143 25 45 207 265 420 506 139 157 293 351 242
305 -24 -22 -27 -22 -49 -7 -15 11 -33 14 -55 10 -20 -4 -33 -2 -33 4 0 6 25
41 56 79 81 98 112 145 108 166 -4 29 -10 30 -30 4z"/>
<path d="M1485 3479 c44 -52 101 -119 128 -148 27 -30 53 -64 57 -75 7 -17 9
-18 9 -4 1 15 -29 56 -76 106 -20 21 -16 30 21 42 24 7 36 19 41 37 3 14 8 23
11 21 2 -3 0 -16 -5 -29 -6 -18 -5 -30 5 -43 7 -11 11 -23 7 -29 -3 -6 -2 -7
4 -4 5 3 25 9 43 12 19 3 48 12 65 20 41 19 114 37 124 31 4 -3 23 -1 42 3 19
5 67 17 108 26 101 23 109 33 68 80 l-32 37 -350 5 -349 6 79 -94z m208 6 c-3
-9 -8 -14 -10 -11 -3 3 -2 9 2 15 9 16 15 13 8 -4z"/>
<path d="M3329 3523 c-13 -16 -12 -17 4 -4 9 7 17 15 17 17 0 8 -8 3 -21 -13z"/>
<path d="M3274 3458 l-29 -33 33 29 c17 17 32 31 32 33 0 8 -8 1 -36 -29z"/>
<path d="M3539 3433 c-13 -16 -12 -17 4 -4 16 13 21 21 13 21 -2 0 -10 -8 -17
-17z"/>
<path d="M3494 3378 l-19 -23 23 19 c12 11 22 21 22 23 0 8 -8 2 -26 -19z"/>
<path d="M2025 3345 c-27 -13 -68 -24 -90 -25 -48 0 -53 -3 -88 -57 -15 -24
-55 -73 -90 -110 -93 -102 -169 -193 -160 -193 4 0 44 9 88 20 110 27 118 26
151 -17 15 -21 56 -71 92 -110 l64 -73 -176 0 c-96 0 -177 -4 -180 -9 -3 -5
31 -56 77 -114 45 -57 122 -157 171 -221 49 -64 90 -115 92 -113 1 1 32 43 70
92 37 50 122 157 188 239 170 208 159 190 106 182 -74 -11 -184 -38 -195 -47
-11 -10 45 -10 127 0 38 5 55 4 50 -4 -18 -29 -205 -260 -213 -263 -16 -6
-139 62 -145 81 -4 12 -16 17 -39 17 -26 0 -41 -9 -70 -41 -20 -22 -38 -39
-40 -37 -4 4 144 181 379 453 99 116 187 218 194 227 12 15 11 22 -10 48 -22
28 -32 32 -82 35 -31 2 -62 8 -69 13 -14 10 -130 52 -143 51 -5 0 -31 -11 -59
-24z m123 -212 c-6 -8 -21 -19 -32 -25 -20 -11 -20 -10 -3 9 21 24 21 29 0 37
-11 4 -29 -5 -52 -26 -34 -32 -34 -31 3 9 39 42 39 42 67 26 22 -13 26 -20 17
-30z m-328 23 c0 -2 -8 -10 -17 -17 -16 -13 -17 -12 -4 4 13 16 21 21 21 13z
m-40 -49 c0 -2 -10 -12 -22 -23 l-23 -19 19 23 c18 21 26 27 26 19z m150 -357
c12 -7 12 -13 1 -32 -20 -39 -112 -158 -121 -158 -7 0 -133 153 -154 188 -6 9
22 12 126 12 73 0 140 -4 148 -10z"/>
<path d="M3270 2980 c-8 -5 -10 -10 -5 -10 6 0 17 5 25 10 8 5 11 10 5 10 -5
0 -17 -5 -25 -10z"/>
<path d="M3480 2935 c-36 -19 -60 -34 -55 -34 6 0 39 15 75 34 36 19 61 34 55
34 -5 0 -39 -15 -75 -34z"/>
<path d="M1605 2890 c-13 -5 -14 -9 -5 -9 8 0 24 4 35 9 13 5 14 9 5 9 -8 0
-24 -4 -35 -9z"/>
<path d="M1737 2554 c-3 -4 -2 -14 3 -24 5 -10 6 -20 3 -24 -3 -3 3 -6 13 -6
11 0 26 -6 33 -12 8 -7 1 6 -14 30 -30 46 -29 45 -38 36z"/>
<path d="M1799 2446 c-15 -10 -12 -16 22 -50 43 -42 47 -52 22 -59 -13 -3 -11
-5 6 -6 13 0 38 -14 55 -30 17 -17 43 -40 57 -53 14 -13 28 -31 31 -39 3 -8 9
-11 13 -7 6 5 -165 241 -184 252 -3 2 -13 -1 -22 -8z"/>
<path d="M1492 2428 c-29 -12 -51 -22 -49 -24 4 -5 127 36 127 42 0 8 -25 2
-78 -18z"/>
<path d="M2538 2433 c7 -3 16 -2 19 1 4 3 -2 6 -13 5 -11 0 -14 -3 -6 -6z"/>
<path d="M3384 2352 c-117 -129 -129 -150 -25 -42 81 84 119 130 108 130 -2 0
-39 -39 -83 -88z"/>
<path d="M1599 2313 c-13 -16 -12 -17 4 -4 9 7 17 15 17 17 0 8 -8 3 -21 -13z"/>
<path d="M1507 2224 c-31 -17 -27 -32 16 -73 l26 -23 -27 -25 c-28 -25 -5 -17
32 11 18 15 18 16 -8 50 -14 19 -26 37 -26 40 0 3 12 12 28 20 22 13 24 15 7
15 -11 0 -32 -7 -48 -15z"/>
<path d="M2080 2086 c0 -8 9 -21 20 -29 11 -8 17 -17 13 -20 -3 -4 4 -7 17 -7
l23 0 -25 32 c-28 37 -48 47 -48 24z"/>
<path d="M2179 1971 c25 -28 47 -48 49 -46 8 8 -64 94 -78 95 -10 0 1 -18 29
-49z"/>
<path d="M1929 1943 l-34 -36 31 21 c36 24 61 52 47 52 -5 0 -25 -16 -44 -37z"/>
<path d="M2118 1883 c7 -3 16 -2 19 1 4 3 -2 6 -13 5 -11 0 -14 -3 -6 -6z"/>
<path d="M1987 1858 c-43 -11 -76 -22 -74 -25 5 -4 169 36 176 43 8 8 -24 2
-102 -18z"/>
<path d="M2109 1320 c-118 -6 -237 -17 -269 -25 -29 -7 -50 -18 -50 -27 0 -5
7 -8 15 -5 8 4 17 2 19 -2 27 -43 878 -68 1241 -36 199 17 305 33 305 45 0 14
-62 30 -135 36 -38 3 -119 9 -180 13 -140 10 -755 11 -946 1z"/>
</g>
</svg>
